<svg width="36" height="36" viewBox="0 0 36 36" fill="none" xmlns="http://www.w3.org/2000/svg">
<path d="M16.5 9C18.1569 9 19.5 7.65685 19.5 6C19.5 4.34315 18.1569 3 16.5 3C14.8431 3 13.5 4.34315 13.5 6C13.5 7.65685 14.8431 9 16.5 9Z" stroke="#065F46" stroke-width="2.5" stroke-linecap="round" stroke-linejoin="round"/>
<path d="M27 15C28.6569 15 30 13.6569 30 12C30 10.3431 28.6569 9 27 9C25.3431 9 24 10.3431 24 12C24 13.6569 25.3431 15 27 15Z" stroke="#065F46" stroke-width="2.5" stroke-linecap="round" stroke-linejoin="round"/>
<path d="M30 27C31.6569 27 33 25.6569 33 24C33 22.3431 31.6569 21 30 21C28.3431 21 27 22.3431 27 24C27 25.6569 28.3431 27 30 27Z" stroke="#065F46" stroke-width="2.5" stroke-linecap="round" stroke-linejoin="round"/>
<path d="M13.5 15C14.4849 15 15.4602 15.194 16.3701 15.5709C17.2801 15.9478 18.1069 16.5003 18.8033 17.1967C19.4997 17.8931 20.0522 18.7199 20.4291 19.6299C20.806 20.5398 21 21.5151 21 22.5V27.75C20.9996 29.0047 20.5498 30.2177 19.7322 31.1695C18.9146 32.1212 17.7832 32.7486 16.5429 32.9381C15.3026 33.1276 14.0354 32.8666 12.9709 32.2024C11.9064 31.5383 11.115 30.5148 10.74 29.3175C10.1 27.2525 8.74999 25.9 6.68999 25.26C5.49326 24.8852 4.47024 24.0944 3.80603 23.0307C3.14182 21.9669 2.88031 20.7006 3.06882 19.4608C3.25733 18.221 3.8834 17.0896 4.83375 16.2714C5.7841 15.4532 6.99594 15.0022 8.24999 15H13.5Z" stroke="#065F46" stroke-width="2.5" stroke-linecap="round" stroke-linejoin="round"/>
</svg>
